<?xml version="1.0" encoding="utf-8"?>
<!-- Generator: Adobe Illustrator 22.1.0, SVG Export Plug-In . SVG Version: 6.00 Build 0)  -->
<svg version="1.1" id="Icon_Set" xmlns="http://www.w3.org/2000/svg" xmlns:xlink="http://www.w3.org/1999/xlink" x="0px" y="0px"
	 viewBox="0 0 512 512" style="enable-background:new 0 0 512 512;" xml:space="preserve">
<style type="text/css">
	.st0{fill:#F0C48A;}
	.st1{fill:#FD919E;}
	.st2{fill:#4C4372;}
	.st3{fill:#D3E6F8;}
	.st4{fill:#A4CFF2;}
	.st5{fill:#7BABF1;}
	.st6{fill:#FFFFFF;}
	.st7{fill:#E8677D;}
	.st8{fill:none;stroke:#4C4372;stroke-width:12;stroke-linecap:round;stroke-linejoin:round;stroke-miterlimit:10;}
</style>
<g id="ECG_Monitor">
	<g>
		<g>
			<circle class="st0" cx="256" cy="256" r="207"/>
		</g>
	</g>
	<g>
		<g>
			<path class="st3" d="M373.046,399.753H138.954c-8.079,0-14.628-6.549-14.628-14.628v-34.131c0-8.079,6.549-14.628,14.628-14.628
				h234.092c8.079,0,14.628,6.549,14.628,14.628v34.131C387.675,393.203,381.125,399.753,373.046,399.753z"/>
		</g>
		<g>
			<path class="st3" d="M372.393,313.405H139.607c-8.44,0-15.281-6.842-15.281-15.281V127.529c0-8.44,6.842-15.281,15.281-15.281
				h232.787c8.44,0,15.281,6.842,15.281,15.281v170.595C387.675,306.563,380.833,313.405,372.393,313.405z"/>
		</g>
		<g>
			<path class="st4" d="M372.393,112.247h-32.738v201.157h32.738c8.44,0,15.281-6.841,15.281-15.281V127.529
				C387.675,119.089,380.833,112.247,372.393,112.247z"/>
		</g>
		<g>
			<path class="st4" d="M373.046,336.365h-33.391v63.388h33.391c8.079,0,14.628-6.549,14.628-14.628v-34.131
				C387.675,342.914,381.125,336.365,373.046,336.365z"/>
		</g>
		<g>
			<circle class="st1" cx="162.062" cy="368.626" r="15.687"/>
		</g>
		<g>
			<path class="st1" d="M298.438,382.672h-84.875c-7.757,0-14.045-6.288-14.045-14.045v0c0-7.757,6.288-14.045,14.045-14.045h84.875
				c7.757,0,14.045,6.288,14.045,14.045v0C312.483,376.383,306.195,382.672,298.438,382.672z"/>
		</g>
		<g>
			<rect x="185.088" y="313.405" class="st5" width="141.824" height="22.96"/>
		</g>
		<g>
			<rect x="149.733" y="136.009" class="st6" width="212.535" height="153.634"/>
		</g>
		<g>
			<rect x="339.655" y="136.009" class="st3" width="22.612" height="153.634"/>
		</g>
		<g>
			<path class="st2" d="M260.989,262.346c-0.046,0-0.091,0-0.137-0.002c-2.419-0.055-4.568-1.557-5.451-3.81l-28.111-71.769
				l-18.629,36.749c-1.022,2.016-3.091,3.287-5.352,3.287h-30.965c-3.313,0-6-2.686-6-6s2.687-6,6-6h27.28l23.017-45.406
				c1.069-2.109,3.278-3.394,5.639-3.28c2.362,0.113,4.437,1.603,5.299,3.805l27.76,70.873l24.692-55.5
				c0.958-2.153,3.087-3.546,5.443-3.561c0.013,0,0.026,0,0.039,0c2.341,0,4.47,1.362,5.45,3.49l13.623,29.579h29.068
				c3.313,0,6,2.686,6,6s-2.687,6-6,6h-32.911c-2.342,0-4.47-1.363-5.45-3.49l-9.686-21.031l-25.139,56.504
				C265.505,260.954,263.354,262.346,260.989,262.346z"/>
		</g>
		<g>
			<path class="st2" d="M372.394,319.405H139.606c-11.734,0-21.281-9.547-21.281-21.281V127.529
				c0-11.734,9.547-21.281,21.281-21.281h232.787c11.734,0,21.281,9.547,21.281,21.281v170.595
				C393.674,309.858,384.128,319.405,372.394,319.405z M139.606,118.247c-5.118,0-9.281,4.164-9.281,9.281v170.595
				c0,5.118,4.164,9.281,9.281,9.281h232.787c5.118,0,9.281-4.163,9.281-9.281V127.529c0-5.118-4.163-9.281-9.281-9.281H139.606z"/>
		</g>
		<g>
			<path class="st2" d="M362.268,295.643H149.732c-3.313,0-6-2.686-6-6V136.009c0-3.314,2.687-6,6-6h212.535c3.313,0,6,2.686,6,6
				v153.634C368.268,292.957,365.581,295.643,362.268,295.643z M155.732,283.643h200.535V142.009H155.732V283.643z"/>
		</g>
		<g>
			<path class="st2" d="M373.046,405.753H138.954c-11.375,0-20.628-9.254-20.628-20.628v-34.131
				c0-11.375,9.254-20.628,20.628-20.628h234.092c11.375,0,20.628,9.254,20.628,20.628v34.131
				C393.674,396.499,384.42,405.753,373.046,405.753z M138.954,342.365c-4.758,0-8.628,3.871-8.628,8.628v34.131
				c0,4.758,3.871,8.628,8.628,8.628h234.092c4.758,0,8.628-3.871,8.628-8.628v-34.131c0-4.758-3.871-8.628-8.628-8.628H138.954z"/>
		</g>
		<g>
			<path class="st2" d="M326.912,342.365H185.088c-3.313,0-6-2.686-6-6v-22.96c0-3.314,2.687-6,6-6h141.823c3.313,0,6,2.686,6,6
				v22.96C332.912,339.679,330.225,342.365,326.912,342.365z M191.088,330.365h129.823v-10.96H191.088V330.365z"/>
		</g>
		<g>
			<path class="st2" d="M162.062,390.313c-11.958,0-21.687-9.729-21.687-21.687s9.729-21.687,21.687-21.687
				c11.958,0,21.688,9.729,21.688,21.687S174.021,390.313,162.062,390.313z M162.062,358.939c-5.341,0-9.687,4.346-9.687,9.687
				s4.346,9.687,9.687,9.687c5.342,0,9.688-4.346,9.688-9.687S167.404,358.939,162.062,358.939z"/>
		</g>
		<g>
			<circle class="st2" cx="336.487" cy="368.626" r="10.469"/>
		</g>
		<g>
			<circle class="st2" cx="363.462" cy="368.626" r="10.469"/>
		</g>
		<g>
			<path class="st2" d="M298.438,388.672h-84.875c-11.053,0-20.045-8.992-20.045-20.045s8.992-20.045,20.045-20.045h84.875
				c11.053,0,20.045,8.992,20.045,20.045S309.491,388.672,298.438,388.672z M213.562,360.581c-4.436,0-8.045,3.609-8.045,8.045
				s3.609,8.045,8.045,8.045h84.875c4.436,0,8.045-3.609,8.045-8.045s-3.609-8.045-8.045-8.045H213.562z"/>
		</g>
	</g>
</g>
</svg>
